<svg width="834" height="1200" viewBox="0 0 834 1200" fill="none" xmlns="http://www.w3.org/2000/svg">
<path d="M371.5 628L467 656.5V725.5L411 786.5C411 786.5 366.508 779.04 339 770.5C315.382 763.168 280 747.5 280 747.5V671L371.5 628Z" fill="url(#paint0_linear_779_403)"/>
<path d="M373.47 640.53C373.763 640.823 374.237 640.823 374.53 640.53L379.303 635.757C379.596 635.464 379.596 634.99 379.303 634.697C379.01 634.404 378.536 634.404 378.243 634.697L374 638.939L369.757 634.697C369.464 634.404 368.99 634.404 368.697 634.697C368.404 634.99 368.404 635.464 368.697 635.757L373.47 640.53ZM374 490L373.25 490L373.25 640L374 640L374.75 640L374.75 490L374 490Z" fill="#AAAAAA"/>
<g clip-path="url(#clip0_779_403)">
<path d="M232.308 432.259C231.733 431.302 230.776 430.238 229.819 429.6C228.99 429.069 227.458 428.378 225.035 428.378C220.825 428.378 217.889 430.557 217.889 433.854C217.889 435.237 218.336 436.033 219.484 436.938C220.76 438.002 222.357 438.586 223.95 439.171L228.033 440.66C230.522 441.563 232.818 442.522 234.604 444.011C236.772 445.819 237.665 447.892 237.665 450.444C237.665 456.985 231.859 461.345 224.206 461.345C221.398 461.345 217.889 460.867 214.956 458.474C212.849 456.774 211.573 454.328 211 452.2L215.594 451.136C215.912 452.998 216.932 454.593 218.145 455.657C219.994 457.198 222.101 457.625 224.269 457.625C230.075 457.625 232.818 454.168 232.818 450.606C232.818 449.011 232.243 447.628 230.711 446.459C229.5 445.502 227.84 444.864 225.608 444.013L221.78 442.524C220.122 441.886 218.017 441.141 216.103 439.599C214.255 438.11 213.17 436.462 213.17 433.802C213.17 428.326 218.208 424.656 225.098 424.656C227.714 424.656 229.819 425.082 231.924 426.251C233.647 427.209 235.114 428.645 236.071 430.186L232.308 432.259Z" fill="white"/>
<path d="M295.714 425.24V460.709H290.993V425.24H295.714Z" fill="white"/>
<path d="M453.468 425.24C456.339 425.24 460.613 425.401 463.801 427.209C466.29 428.591 468.46 431.302 468.46 435.078C468.46 440.503 464.185 444.49 457.743 444.862L471.267 460.709H465.526L452.576 445.183H451.365V460.709H446.644V425.24H453.47H453.468ZM451.363 441.671H454.36C460.229 441.671 463.738 439.332 463.738 435.184C463.738 433.216 463.035 431.25 460.357 429.973C458.444 429.07 456.274 428.962 454.234 428.962H451.363V441.671Z" fill="white"/>
<path d="M546.793 450.711H528.677L523.573 460.709H518.344L537.927 423.539L557 460.709H551.771L546.793 450.711ZM544.944 446.989L537.799 432.791L530.526 446.989H544.944Z" fill="white"/>
<path d="M372.076 423L373.834 423.133C381.389 423.95 388.5 428.474 391.65 435.491C392.733 437.906 393.284 440.559 393.266 443.216H374.429L364.721 452.897H390.356C389.765 453.852 389.08 454.755 388.332 455.592C381.183 463.584 368.706 465.22 359.454 459.954C353.867 456.774 349.746 451.196 349.158 444.673L349.092 443.764V442.821C349.27 442.821 349.45 442.812 349.627 442.845L367.837 442.839C369.791 440.913 371.744 438.977 373.687 437.039C374.986 435.743 376.282 434.445 377.572 433.14H351.959C355.087 428.155 360.342 424.759 366.075 423.532C367.435 423.24 368.835 423.056 370.228 423.021L370.281 422.998H372.076V423ZM352.725 432.769H377.954L383.701 427.063C378.233 423.485 371.166 422.542 364.871 424.276C360.002 425.617 355.574 428.58 352.727 432.769H352.725ZM389.61 432.769C389.001 431.841 388.284 430.987 387.519 430.184L384.926 432.769H389.612H389.61ZM392.828 442.845C392.805 441.962 392.742 441.082 392.607 440.21C392.214 437.697 391.255 435.291 389.886 433.164L389.821 433.14L384.533 433.153C381.576 436.1 378.628 439.061 375.656 441.99C375.429 442.214 375.051 442.542 374.869 442.78C374.853 442.802 374.827 442.807 374.836 442.847H392.83L392.828 442.845ZM367.457 443.218H349.528C349.548 446.226 350.38 449.207 351.845 451.819C351.921 451.956 352.453 452.875 352.521 452.895L352.581 452.901C354.311 452.884 356.048 452.928 357.771 452.879L367.457 443.218ZM357.344 453.294H352.768C353.289 454.042 353.846 454.77 354.464 455.44C354.511 455.491 354.808 455.815 354.833 455.812L357.344 453.294ZM389.567 453.294H364.316L358.679 458.912L358.668 458.968C365.635 463.463 374.972 463.753 382.257 459.811C385.02 458.317 387.61 456.123 389.412 453.542C389.431 453.515 389.581 453.304 389.568 453.294H389.567Z" fill="white"/>
</g>
<defs>
<linearGradient id="paint0_linear_779_403" x1="373.5" y1="628" x2="373.5" y2="786.5" gradientUnits="userSpaceOnUse">
<stop stop-color="white" stop-opacity="0"/>
<stop offset="1" stop-color="white"/>
</linearGradient>
<clipPath id="clip0_779_403">
<rect width="346" height="40" fill="white" transform="translate(211 423)"/>
</clipPath>
</defs>
</svg>
