<svg width="1920" height="1200" viewBox="0 0 1920 1200" fill="none" xmlns="http://www.w3.org/2000/svg">
<path d="M599.203 622L685 647.533V709.35L634.69 764C634.69 764 594.719 757.317 570.005 749.666C548.787 743.097 517 731 517 731V660.524L599.203 622Z" fill="url(#paint0_linear_686_318)"/>
<path d="M594.646 580.354C594.842 580.549 595.158 580.549 595.354 580.354L598.536 577.172C598.731 576.976 598.731 576.66 598.536 576.464C598.34 576.269 598.024 576.269 597.828 576.464L595 579.293L592.172 576.464C591.976 576.269 591.66 576.269 591.464 576.464C591.269 576.66 591.269 576.976 591.464 577.172L594.646 580.354ZM595 330L594.5 330L594.5 580L595 580L595.5 580L595.5 330L595 330Z" fill="#DEDEDE"/>
<g clip-path="url(#clip0_686_318)">
<path d="M438.443 260.185C437.811 259.132 436.758 257.963 435.705 257.261C434.793 256.676 433.108 255.917 430.441 255.917C425.81 255.917 422.58 258.314 422.58 261.94C422.58 263.461 423.072 264.337 424.335 265.332C425.738 266.502 427.495 267.145 429.248 267.789L433.74 269.427C436.479 270.42 439.005 271.475 440.969 273.112C443.355 275.101 444.338 277.381 444.338 280.189C444.338 287.384 437.95 292.18 429.529 292.18C426.44 292.18 422.58 291.655 419.352 289.022C417.034 287.152 415.63 284.461 415 282.12L420.054 280.95C420.405 282.998 421.527 284.753 422.861 285.923C424.896 287.618 427.213 288.088 429.599 288.088C435.987 288.088 439.005 284.285 439.005 280.367C439.005 278.612 438.372 277.092 436.687 275.805C435.354 274.752 433.528 274.05 431.072 273.114L426.86 271.477C425.036 270.775 422.721 269.956 420.615 268.259C418.581 266.621 417.387 264.809 417.387 261.882C417.387 255.859 422.931 251.822 430.511 251.822C433.39 251.822 435.705 252.29 438.021 253.577C439.917 254.63 441.53 256.21 442.583 257.905L438.443 260.185Z" fill="white"/>
<path d="M508.204 252.464V291.48H503.01V252.464H508.204Z" fill="white"/>
<path d="M681.77 252.464C684.928 252.464 689.631 252.641 693.138 254.629C695.877 256.15 698.264 259.132 698.264 263.286C698.264 269.254 693.561 273.64 686.473 274.048L701.353 291.48H695.036L680.788 274.401H679.456V291.48H674.261V252.464H681.772H681.77ZM679.454 270.539H682.751C689.209 270.539 693.069 267.965 693.069 263.403C693.069 261.238 692.296 259.075 689.35 257.671C687.244 256.678 684.857 256.559 682.612 256.559H679.454V270.539Z" fill="white"/>
<path d="M784.448 280.482H764.516L758.901 291.48H753.147L774.693 250.593L795.678 291.48H789.924L784.448 280.482ZM782.414 276.388L774.552 260.77L766.55 276.388H782.414Z" fill="white"/>
<path d="M592.219 250L594.155 250.147C602.466 251.045 610.29 256.021 613.755 263.74C614.947 266.397 615.554 269.315 615.534 272.238H594.809L584.128 282.887H612.332C611.682 283.938 610.928 284.931 610.105 285.851C602.24 294.642 588.512 296.443 578.333 290.649C572.186 287.152 567.652 281.015 567.005 273.84L566.932 272.841V271.804C567.128 271.804 567.327 271.794 567.521 271.83L587.556 271.824C589.705 269.704 591.855 267.575 593.992 265.443C595.422 264.018 596.847 262.59 598.267 261.155H570.087C573.529 255.671 579.31 251.935 585.617 250.585C587.114 250.264 588.655 250.061 590.187 250.024L590.245 249.998H592.219V250ZM570.929 260.746H598.687L605.01 254.469C598.994 250.533 591.218 249.496 584.293 251.404C578.935 252.879 574.064 256.138 570.931 260.746H570.929ZM611.511 260.746C610.841 259.725 610.052 258.785 609.211 257.903L606.358 260.746H611.513H611.511ZM615.052 271.83C615.026 270.858 614.957 269.89 614.808 268.931C614.376 266.167 613.321 263.52 611.814 261.18L611.743 261.155L605.926 261.169C602.672 264.41 599.429 267.668 596.159 270.89C595.909 271.136 595.493 271.496 595.293 271.758C595.275 271.782 595.247 271.788 595.257 271.831H615.054L615.052 271.83ZM587.138 272.24H567.412C567.434 275.549 568.35 278.828 569.962 281.701C570.045 281.852 570.63 282.863 570.705 282.885L570.771 282.891C572.674 282.873 574.585 282.921 576.481 282.867L587.138 272.24ZM576.011 283.323H570.977C571.55 284.146 572.162 284.947 572.843 285.685C572.894 285.74 573.221 286.097 573.249 286.093L576.011 283.323ZM611.463 283.323H583.682L577.48 289.503L577.468 289.565C585.133 294.51 595.406 294.829 603.422 290.493C606.461 288.849 609.31 286.436 611.293 283.597C611.315 283.567 611.479 283.335 611.465 283.323H611.463Z" fill="white"/>
</g>
<defs>
<linearGradient id="paint0_linear_686_318" x1="601" y1="622" x2="601.488" y2="749.31" gradientUnits="userSpaceOnUse">
<stop stop-color="white" stop-opacity="0"/>
<stop offset="1" stop-color="white"/>
</linearGradient>
<clipPath id="clip0_686_318">
<rect width="380.678" height="44" fill="white" transform="translate(415 250)"/>
</clipPath>
</defs>
</svg>
