<svg width="32" height="32" viewBox="0 0 32 32" fill="none" xmlns="http://www.w3.org/2000/svg">
<path d="M16.129 2.00126L17.3633 2.09463C22.6646 2.66618 27.6548 5.83306 29.8653 10.7449C30.6254 12.4356 31.0123 14.2928 30.9997 16.1525H17.7806L10.9681 22.9291H28.9573C28.5425 23.5978 28.062 24.23 27.5372 24.8154C22.5204 30.4098 13.7642 31.5554 7.27158 27.8687C3.35125 25.6431 0.459057 21.7381 0.0467904 17.172L0 16.5361V15.8762C0.125198 15.8762 0.251664 15.8699 0.375597 15.8926L13.1546 15.8888C14.5255 14.5401 15.8963 13.185 17.2596 11.8287C18.1714 10.9215 19.0806 10.0131 19.9861 9.09961H2.01202C4.2074 5.60973 7.89505 3.23268 11.9178 2.37346C12.8726 2.16907 13.8552 2.04037 14.8328 2.0164L14.8694 2H16.129V2.00126ZM2.54948 8.83969H20.2542L24.2871 4.84514C20.4502 2.34066 15.4904 1.68079 11.073 2.89455C7.65603 3.83326 4.54885 5.9075 2.55075 8.83969H2.54948ZM28.4338 8.83969C28.0063 8.18992 27.503 7.59187 26.9668 7.03041L25.147 8.83969H28.435H28.4338ZM30.6924 15.8926C30.676 15.2744 30.6317 14.6587 30.5369 14.048C30.2612 12.2892 29.5884 10.6048 28.6273 9.11601L28.5817 9.09961L24.8713 9.10844C22.7961 11.1713 20.7272 13.2443 18.6418 15.2946C18.4825 15.451 18.2169 15.6807 18.0892 15.8472C18.0778 15.8623 18.0601 15.8661 18.0664 15.8939H30.6937L30.6924 15.8926ZM12.8878 16.1538H0.306044C0.319955 18.2596 0.904209 20.3464 1.93235 22.1746C1.98546 22.2705 2.35853 22.914 2.40658 22.9279L2.44832 22.9317C3.66235 22.9203 4.88145 22.9506 6.09043 22.9165L12.8878 16.1538ZM5.79071 23.2067H2.57983C2.94531 23.7303 3.33607 24.24 3.76984 24.7094C3.80272 24.7447 4.01139 24.9718 4.02909 24.9693L5.79071 23.2067ZM28.4034 23.2067H10.6835L6.72779 27.1394L6.72021 27.1786C11.6092 30.3252 18.1613 30.5284 23.2741 27.769C25.2128 26.7231 27.0301 25.1876 28.2947 23.3808C28.3086 23.3619 28.4136 23.2143 28.4047 23.2067H28.4034Z" fill="black"/>
</svg>
