<svg width="450" height="60" viewBox="0 0 450 60" fill="none" xmlns="http://www.w3.org/2000/svg">
<path d="M328.497 1.04883L356.93 45.0978L349.05 1.04883H362.869V58.9493H350.998L316.83 9.88658L325.662 58.9493H311.842V1.04883H328.497Z" fill="#142B00"/>
<path d="M166.342 1.04883L179.988 32.8263L189.375 1.04883H206.03L184.414 35.1181V58.9493H169.886V35.4715L147.206 1.04883H166.342Z" fill="#142B00"/>
<path d="M125.936 1.04883V15.9822L95.1067 6.09695V25.0562H122.038V39.1829L95.1067 30.3709L95.2248 53.9012L126.054 44.0159L125.936 58.9493H80.5777V1.04883H125.936Z" fill="#142B00"/>
<path d="M253.969 0C233.419 0 221.595 12.6082 221.595 29.8657C221.595 47.1237 233.412 60 253.902 60C274.526 60 286.21 47.1237 286.21 29.9334C286.209 12.7642 274.448 0 253.969 0ZM270.495 29.9667C270.495 51.1638 263.328 56.5173 253.968 56.5173C244.517 56.5173 237.442 51.0875 237.442 29.9329C237.442 9.03967 244.588 3.38274 253.968 3.38274C263.331 3.38274 270.495 8.82613 270.495 29.9329V29.9667Z" fill="#142B00"/>
<path d="M416.746 0.853516L394.627 0.858569V59.1432L417.551 59.1483C442.97 59.1483 449.771 43.5183 449.675 30.2377C449.549 12.9024 437.908 0.853516 416.746 0.853516ZM416.111 55.7024H409.519V4.30189H414.018C428.904 4.30189 433.711 12.5207 433.711 29.5955C433.711 42.5091 432.504 55.7024 416.111 55.7024Z" fill="#142B00"/>
<path d="M36.6883 29.2321L30.1323 28.5794V28.3709L35.505 26.858C43.4805 24.5167 49.3853 21.3323 49.3853 13.173C49.3853 4.13787 43.2473 1.07719 34.455 1.07719L0 1.07617V58.9181L33.4332 58.9232C41.5178 58.9232 51.8448 54.6459 51.8448 43.2664C51.8442 35.1 46.7295 30.267 36.6883 29.2321ZM14.6189 4.49931H22.8135C32.0465 4.49931 34.4908 10.603 34.4908 15.9525C34.4908 26.4995 25.964 27.1442 21.8766 27.1442H14.6194V4.49931H14.6189ZM22.5152 55.4995H14.6189V30.7056L24.0261 30.7067C32.0384 30.7067 36.1612 35.7947 36.1612 42.7172C36.1617 51.5766 30.7719 55.4995 22.5152 55.4995Z" fill="#142B00"/>
</svg>
